<svg preserveAspectRatio="none" width="100%" height="100%" overflow="visible" style="display: block;" viewBox="0 0 23.5529 24.3724" fill="none" xmlns="http://www.w3.org/2000/svg">
<g id="Group">
<path id="Vector" d="M8.23729 23.4584V19.6246C8.23732 18.6844 8.56382 17.7734 9.161 17.0472C5.49906 16.5598 2.7267 14.7818 2.7267 9.9817C2.7267 7.95148 4.47176 5.24128 4.47176 5.24128C3.84539 3.86424 3.86245 1.48306 4.54488 0.913966C4.54488 0.913966 6.92118 1.12722 9.2329 3.04655C11.4727 2.44333 13.8198 2.37143 16.1315 3.04655C18.4432 1.12722 20.8207 0.913966 20.8207 0.913966C21.5007 1.48306 21.519 3.86546 20.8939 5.24128C20.8939 5.24128 22.6389 7.95148 22.6389 9.9817C22.6389 14.7831 19.8653 16.5598 16.2046 17.0472C16.8014 17.7736 17.1274 18.6846 17.1271 19.6246V23.4584" stroke="var(--stroke-0, #483F3F)" stroke-width="1.82793" stroke-linecap="round" stroke-linejoin="round"/>
<path id="Vector_2" d="M0.914202 17.7552C1.11284 18.4303 1.47842 19.0542 1.98415 19.5782C2.48866 20.1034 3.1199 20.5165 3.82792 20.7822C4.54065 21.0497 5.30164 21.1645 6.06158 21.1192C6.82151 21.0738 7.56345 20.8694 8.23931 20.519" stroke="var(--stroke-0, #483F3F)" stroke-width="1.82793" stroke-linecap="round" stroke-linejoin="round"/>
</g>
</svg>
