<svg preserveAspectRatio="none" width="100%" height="100%" overflow="visible" style="display: block;" viewBox="0 0 29.2468 29.2468" fill="none" xmlns="http://www.w3.org/2000/svg">
<g id="121344626">
<path id="ZqSiPaMGU" d="M18.2812 17.3652C18.2812 14.8415 20.3273 12.7954 22.8511 12.7954C25.3748 12.7954 27.4209 14.8415 27.4209 17.3652H18.2812Z" fill="var(--fill-0, white)" fill-opacity="0.2"/>
<path id="lTvmboPjj" d="M10.7401 14.1665H10.2831C12.1756 14.1665 13.7098 12.6323 13.7098 10.7397C13.7098 8.84601 12.1756 7.31177 10.2831 7.31177H3.65625V21.9352H10.7401C12.8848 21.9352 14.6238 20.1962 14.6238 18.0514C14.6238 15.9055 12.8848 14.1665 10.7401 14.1665Z" fill="var(--fill-0, white)" fill-opacity="0.2"/>
<path id="BwL7ykDRC" d="M19.1953 9.13965H26.507" stroke="var(--stroke-0, #483F3F)" stroke-width="1.82793" stroke-linecap="round" stroke-linejoin="round"/>
<path id="iI8vaHtlW" d="M3.65625 14.1665H10.7401C12.8848 14.1665 14.6238 15.9055 14.6238 18.0514C14.6238 20.1962 12.8848 21.9352 10.7401 21.9352H3.65625V7.31177H10.2831C12.1756 7.31177 13.7098 8.84601 13.7098 10.7397C13.7098 12.6323 12.1756 14.1665 10.2831 14.1665" stroke="var(--stroke-0, #483F3F)" stroke-width="1.82793" stroke-linecap="round" stroke-linejoin="round"/>
<path id="AM4RYz5bG" d="M26.5005 20.107C25.1551 21.9008 22.7081 22.454 20.723 21.4133C18.7379 20.3726 17.7996 18.0463 18.5088 15.9198C19.218 13.7945 21.364 12.4955 23.5758 12.855C25.7888 13.2132 27.4144 15.124 27.4144 17.3651H18.2748" stroke="var(--stroke-0, #483F3F)" stroke-width="1.82793" stroke-linecap="round" stroke-linejoin="round"/>
</g>
</svg>
