<svg preserveAspectRatio="none" width="100%" height="100%" overflow="visible" style="display: block;" viewBox="0 0 40 53.8173" fill="none" xmlns="http://www.w3.org/2000/svg">
<g id="Group">
<path id="Vector" d="M0 22.8798V38.7198C0 39.5465 0.373333 40.3465 0.986666 40.8798L15.28 53.1196C17.1467 54.7196 20 53.3865 20 50.9598V40.0265H33.0933C35.6267 40.0265 36.9067 36.9598 35.12 35.1465L20 20.0265H2.85336C1.28003 19.9998 0 21.2797 0 22.8798Z" fill="var(--fill-0, #D21FAE)"/>
<path id="Vector_2" d="M37.1467 0H6.90677C4.37344 0 3.09341 3.06661 4.88008 4.87995L20 20H37.1467C38.72 20 40 18.72 40 17.1466V2.85333C40 1.28 38.72 0 37.1467 0Z" fill="var(--fill-0, #D21FAE)"/>
</g>
</svg>
