<svg preserveAspectRatio="none" width="100%" height="100%" overflow="visible" style="display: block;" viewBox="0 0 24 24" fill="none" xmlns="http://www.w3.org/2000/svg">
<g id="284710571">
<path id="poRFu5DyP" d="M3 12C3 7.029 7.029 3 12 3C16.971 3 21 7.029 21 12C21 16.971 16.971 21 12 21C7.029 21 3 16.971 3 12Z" fill="var(--fill-0, white)" fill-opacity="0.2"/>
<path id="Pn8o_iuqT" d="M3 12C3 7.029 7.029 3 12 3C16.971 3 21 7.029 21 12C21 16.971 16.971 21 12 21C7.029 21 3 16.971 3 12Z" stroke="var(--stroke-0, #483F3F)" stroke-width="1.5" stroke-linecap="round" stroke-linejoin="round"/>
<path id="MOT7Ok_Z9" d="M6.65625 19.244C9.37225 14.745 14.2452 11.997 19.5002 12C20.0052 12 20.5062 12.025 21.0002 12.074" stroke="var(--stroke-0, #483F3F)" stroke-width="1.5" stroke-linecap="round" stroke-linejoin="round"/>
<path id="uWno1dECK" d="M17.625 4.977C14.779 8.475 10.508 10.503 6 10.5C5.051 10.5 4.104 10.411 3.172 10.234" stroke="var(--stroke-0, #483F3F)" stroke-width="1.5" stroke-linecap="round" stroke-linejoin="round"/>
<path id="DGpj3ZHuH" d="M8.05469 3.9082C12.6447 6.6002 15.4637 11.5242 15.4607 16.8462C15.4617 18.0712 15.3127 19.2922 15.0177 20.4812" stroke="var(--stroke-0, #483F3F)" stroke-width="1.5" stroke-linecap="round" stroke-linejoin="round"/>
</g>
</svg>
