<svg width="64" height="64" viewBox="0 0 64 64" fill="none" xmlns="http://www.w3.org/2000/svg">
<g clip-path="url(#clip0_160_159)">
<mask id="mask0_160_159" style="mask-type:luminance" maskUnits="userSpaceOnUse" x="0" y="0" width="64" height="64">
<path d="M64 0H0V64H64V0Z" fill="white"/>
</mask>
<g mask="url(#mask0_160_159)">
<path d="M39.9901 60.6667C39.2701 60.6667 38.6034 60.2667 38.2568 59.6533C37.9101 59.04 37.9101 58.2667 38.2834 57.6533L41.0834 52.9867C41.6434 52.0267 42.8701 51.7333 43.8301 52.2933C44.7901 52.8533 45.0834 54.08 44.5234 55.04L43.8034 56.24C51.1634 54.5067 56.6834 47.8933 56.6834 40C56.6834 38.9067 57.5901 38 58.6834 38C59.7768 38 60.6834 38.9067 60.6834 40C60.6568 51.3867 51.3768 60.6667 39.9901 60.6667Z" fill="#D21FAE"/>
<path d="M5.32812 25.9997C4.23479 25.9997 3.32812 25.093 3.32812 23.9997C3.32812 12.613 12.6081 3.33301 23.9948 3.33301C24.7148 3.33301 25.3815 3.73301 25.7281 4.34634C26.0748 4.95967 26.0748 5.73301 25.7015 6.34634L22.9015 11.0397C22.3415 11.973 21.1148 12.293 20.1548 11.7063C19.2215 11.1463 18.9015 9.91967 19.4881 8.95967L20.2081 7.75967C12.8215 9.49301 7.32812 16.1063 7.32812 23.9997C7.32812 25.093 6.42146 25.9997 5.32812 25.9997Z" fill="#D21FAE"/>
<path d="M28.4507 36.934L20.0773 32.4274C19.1973 31.9474 18.1306 31.9474 17.2506 32.4274L8.87729 36.934C8.26396 37.254 7.89062 37.9207 7.89062 38.6407C7.89062 39.3607 8.26396 40.0274 8.87729 40.3474L17.2506 44.854C17.704 45.0941 18.184 45.2007 18.664 45.2007C19.144 45.2007 19.624 45.0941 20.0773 44.854L28.4507 40.3474C29.0641 40.0274 29.4374 39.3607 29.4374 38.6407C29.4374 37.9207 29.0374 37.2807 28.4507 36.934Z" fill="#D21FAE"/>
<path d="M15.8615 46.428L8.07479 42.5347C7.48813 42.2413 6.79479 42.268 6.20812 42.6147C5.67479 42.9613 5.32812 43.5747 5.32812 44.2413V51.6013C5.32812 52.8813 6.02146 54.028 7.16813 54.588L14.9548 58.4813C15.2215 58.588 15.5148 58.668 15.8081 58.668C16.1548 58.668 16.5015 58.5613 16.8215 58.3747C17.3815 58.028 17.7281 57.4147 17.7281 56.748V49.388C17.7281 48.1347 17.0081 46.988 15.8615 46.428Z" fill="#D21FAE"/>
<path d="M31.0871 42.6147C30.5271 42.268 29.8338 42.2413 29.2204 42.5347L21.4338 46.428C20.2871 46.988 19.5938 48.1347 19.5938 49.4147V56.7747C19.5938 57.4413 19.9404 58.0547 20.5004 58.4013C20.8204 58.5613 21.1671 58.668 21.5137 58.668C21.8071 58.668 22.1004 58.588 22.3671 58.4547L30.1537 54.5613C31.3004 54.0013 31.9938 52.8547 31.9938 51.5747V44.2147C31.9938 43.5747 31.6471 42.9613 31.0871 42.6147Z" fill="#D21FAE"/>
<path d="M55.1147 10.2153L46.7414 5.70863C45.8614 5.22863 44.7947 5.22863 43.9147 5.70863L35.5414 10.2153C34.928 10.5353 34.5547 11.202 34.5547 11.922C34.5547 12.642 34.928 13.3086 35.5414 13.6286L43.9147 18.1353C44.368 18.3753 44.848 18.482 45.328 18.482C45.808 18.482 46.288 18.3753 46.7414 18.1353L55.1147 13.6286C55.728 13.3086 56.1014 12.642 56.1014 11.922C56.1014 11.1753 55.7014 10.5353 55.1147 10.2153Z" fill="#D21FAE"/>
<path d="M42.5333 19.678L34.7467 15.7847C34.16 15.4914 33.4667 15.518 32.88 15.8647C32.3467 16.2113 32 16.8247 32 17.4913V24.8513C32 26.1313 32.6933 27.2781 33.84 27.8381L41.6267 31.7314C41.8933 31.8647 42.1867 31.9447 42.48 31.9447C42.8267 31.9447 43.1733 31.8381 43.4933 31.6514C44.0533 31.3047 44.4 30.6914 44.4 30.0247V22.6647C44.4 21.3847 43.68 20.238 42.5333 19.678Z" fill="#D21FAE"/>
<path d="M57.759 15.8647C57.199 15.518 56.5056 15.4914 55.8923 15.7847L48.1056 19.678C46.959 20.238 46.2656 21.3847 46.2656 22.6647V30.0247C46.2656 30.6914 46.6123 31.3047 47.1723 31.6514C47.4923 31.8381 47.839 31.9447 48.1856 31.9447C48.479 31.9447 48.7723 31.8647 49.039 31.7314L56.8256 27.8381C57.9723 27.2514 58.6656 26.1047 58.6656 24.8513V17.4913C58.6656 16.8247 58.319 16.2113 57.759 15.8647Z" fill="#D21FAE"/>
</g>
</g>
<defs>
<clipPath id="clip0_160_159">
<rect width="64" height="64" fill="white"/>
</clipPath>
</defs>
</svg>
